<?xml version="1.0" standalone="no"?>
<!DOCTYPE svg PUBLIC "-//W3C//DTD SVG 20010904//EN"
 "http://www.w3.org/TR/2001/REC-SVG-20010904/DTD/svg10.dtd">
<svg version="1.0" xmlns="http://www.w3.org/2000/svg"
 width="1000.000000pt" height="800.000000pt" viewBox="0 0 1000.000000 800.000000"
 preserveAspectRatio="xMidYMid meet">

<g transform="translate(0.000000,800.000000) scale(0.100000,-0.100000)"
fill="#000000" stroke="none">
<path d="M5427 5950 c-211 -12 -464 -36 -616 -61 -514 -82 -1030 -280 -1471
-567 -106 -68 -290 -200 -290 -207 0 -2 51 24 113 57 180 95 651 328 792 392
398 180 474 199 790 200 232 0 353 -10 630 -50 166 -24 615 -110 624 -120 3
-3 -5 -8 -18 -11 -49 -13 -181 -83 -281 -151 -122 -81 -222 -163 -484 -396
-332 -293 -468 -394 -651 -482 -196 -95 -351 -120 -675 -111 -342 10 -741 74
-1080 172 -221 65 -330 122 -330 173 0 57 166 175 363 258 l68 29 -118 3
c-398 11 -934 -93 -1249 -242 -309 -147 -563 -371 -774 -686 -77 -116 -154
-250 -146 -257 3 -4 6 -1 6 5 0 19 143 203 225 290 194 206 471 398 753 521
51 23 96 41 100 41 4 0 -27 -19 -68 -41 -347 -188 -702 -534 -996 -970 l-84
-125 23 -247 c13 -136 26 -249 28 -251 2 -2 87 -31 189 -65 l185 -62 504 -34
c278 -19 510 -31 515 -27 16 9 907 771 931 795 11 11 -50 -27 -135 -85 -85
-58 -307 -207 -493 -332 l-337 -227 -292 41 c-161 23 -294 42 -295 44 -2 2
302 153 674 336 l678 333 399 132 399 132 -114 7 c-515 31 -953 190 -1231 445
l-75 70 -115 -53 c-187 -86 -700 -359 -930 -496 -21 -12 -38 -19 -38 -14 0 16
85 116 153 181 170 161 384 296 673 424 122 54 367 149 384 149 3 0 12 -22 19
-49 44 -171 226 -282 623 -380 368 -92 652 -130 1008 -138 290 -6 455 4 660
39 155 27 160 27 295 -5 184 -44 337 -60 580 -60 479 -1 852 82 1238 275 263
131 562 260 1107 479 217 87 389 159 382 159 -33 0 -166 -24 -257 -47 -212
-52 -500 -154 -1110 -391 -415 -161 -613 -231 -740 -260 -239 -55 -532 -56
-893 -1 -191 29 -182 21 -123 104 358 506 1208 1025 1870 1144 290 52 613 30
1086 -74 293 -65 825 -222 799 -237 -5 -3 -27 -11 -49 -18 -61 -19 -153 -68
-221 -116 -80 -56 -152 -136 -214 -237 l-50 -81 -107 -18 c-395 -66 -809 -253
-1138 -514 -92 -73 -165 -137 -150 -132 6 1 109 45 230 97 451 193 737 294
840 295 53 1 60 -1 73 -24 30 -55 -6 -363 -72 -625 l-22 -90 -60 -8 c-435 -57
-1008 -209 -1559 -412 -204 -75 -499 -193 -611 -245 l-82 -38 -76 152 c-92
182 -181 310 -301 431 -102 103 -192 170 -303 225 -151 76 -268 102 -447 102
-306 -1 -634 -130 -855 -338 -345 -324 -467 -860 -344 -1519 38 -205 42 -207
36 -15 -16 553 134 1006 433 1306 142 143 295 233 466 274 410 98 806 -171
894 -609 23 -112 16 -366 -13 -491 -18 -74 -62 -215 -88 -275 -6 -15 1 -12 32
13 368 306 601 461 964 643 650 325 1459 542 2185 585 l110 7 -7 81 c-19 199
29 545 106 771 47 140 79 207 142 302 121 183 275 264 444 234 196 -35 322
-169 366 -391 34 -170 5 -480 -70 -740 l-25 -85 45 49 c148 162 235 440 265
852 11 152 8 441 -7 580 l-7 61 -136 6 c-230 9 -586 82 -969 198 -572 174
-1178 276 -1947 329 -205 14 -864 20 -1058 10z"/>
<path d="M471 3582 l-31 -49 0 -221 c0 -122 2 -222 5 -222 3 0 27 11 53 24
l48 24 -17 242 c-9 133 -19 243 -22 246 -2 3 -19 -17 -36 -44z"/>
<path d="M2242 2801 l-732 -257 46 -34 c52 -37 122 -127 164 -211 l28 -55 254
-28 253 -27 279 55 c153 30 279 56 281 58 1 2 39 163 84 358 45 195 84 365 87
378 4 12 2 22 -2 21 -5 0 -339 -117 -742 -258z"/>
<path d="M500 3001 c0 -6 14 -67 31 -134 l31 -123 104 -82 104 -82 91 0 c69 0
90 3 87 13 -3 6 -20 73 -38 148 l-33 135 -176 64 c-97 35 -182 66 -188 68 -7
2 -13 -1 -13 -7z"/>
</g>
</svg>
